<svg width="28" height="28" viewBox="0 0 35 36" fill="none" xmlns="http://www.w3.org/2000/svg">
<path d="M1 17.2917C1 10.6139 1 7.27406 2.9338 5.20042C4.86595 3.125 7.97785 3.125 14.2 3.125H20.8C27.0221 3.125 30.134 3.125 32.0662 5.20042C34 7.27406 34 10.6139 34 17.2917V20.8333C34 27.5111 34 30.8509 32.0662 32.9246C30.134 35 27.0221 35 20.8 35H14.2C7.97785 35 4.86595 35 2.9338 32.9246C1 30.8509 1 27.5111 1 20.8333V17.2917Z" stroke="#9B7ED9" stroke-width="2"/>
<path d="M9.34211 3.69712V1M25.6579 3.69712V1M2 12.6875H33" stroke="#9B7ED9" stroke-width="2" stroke-linecap="round"/>
<path d="M28 26.8542C28 27.3238 27.8244 27.7742 27.5118 28.1063C27.1993 28.4384 26.7754 28.625 26.3333 28.625C25.8913 28.625 25.4674 28.4384 25.1548 28.1063C24.8423 27.7742 24.6667 27.3238 24.6667 26.8542C24.6667 26.3845 24.8423 25.9341 25.1548 25.602C25.4674 25.2699 25.8913 25.0833 26.3333 25.0833C26.7754 25.0833 27.1993 25.2699 27.5118 25.602C27.8244 25.9341 28 26.3845 28 26.8542ZM28 19.7708C28 20.2405 27.8244 20.6909 27.5118 21.023C27.1993 21.3551 26.7754 21.5417 26.3333 21.5417C25.8913 21.5417 25.4674 21.3551 25.1548 21.023C24.8423 20.6909 24.6667 20.2405 24.6667 19.7708C24.6667 19.3012 24.8423 18.8508 25.1548 18.5187C25.4674 18.1866 25.8913 18 26.3333 18C26.7754 18 27.1993 18.1866 27.5118 18.5187C27.8244 18.8508 28 19.3012 28 19.7708ZM19.6667 26.8542C19.6667 27.3238 19.4911 27.7742 19.1785 28.1063C18.8659 28.4384 18.442 28.625 18 28.625C17.558 28.625 17.134 28.4384 16.8215 28.1063C16.5089 27.7742 16.3333 27.3238 16.3333 26.8542C16.3333 26.3845 16.5089 25.9341 16.8215 25.602C17.134 25.2699 17.558 25.0833 18 25.0833C18.442 25.0833 18.8659 25.2699 19.1785 25.602C19.4911 25.9341 19.6667 26.3845 19.6667 26.8542ZM19.6667 19.7708C19.6667 20.2405 19.4911 20.6909 19.1785 21.023C18.8659 21.3551 18.442 21.5417 18 21.5417C17.558 21.5417 17.134 21.3551 16.8215 21.023C16.5089 20.6909 16.3333 20.2405 16.3333 19.7708C16.3333 19.3012 16.5089 18.8508 16.8215 18.5187C17.134 18.1866 17.558 18 18 18C18.442 18 18.8659 18.1866 19.1785 18.5187C19.4911 18.8508 19.6667 19.3012 19.6667 19.7708ZM11.3333 26.8542C11.3333 27.3238 11.1577 27.7742 10.8452 28.1063C10.5326 28.4384 10.1087 28.625 9.66667 28.625C9.22464 28.625 8.80072 28.4384 8.48816 28.1063C8.1756 27.7742 8 27.3238 8 26.8542C8 26.3845 8.1756 25.9341 8.48816 25.602C8.80072 25.2699 9.22464 25.0833 9.66667 25.0833C10.1087 25.0833 10.5326 25.2699 10.8452 25.602C11.1577 25.9341 11.3333 26.3845 11.3333 26.8542ZM11.3333 19.7708C11.3333 20.2405 11.1577 20.6909 10.8452 21.023C10.5326 21.3551 10.1087 21.5417 9.66667 21.5417C9.22464 21.5417 8.80072 21.3551 8.48816 21.023C8.1756 20.6909 8 20.2405 8 19.7708C8 19.3012 8.1756 18.8508 8.48816 18.5187C8.80072 18.1866 9.22464 18 9.66667 18C10.1087 18 10.5326 18.1866 10.8452 18.5187C11.1577 18.8508 11.3333 19.3012 11.3333 19.7708Z" fill="#9B7ED9"/>
</svg>
