<svg width="26" height="26" viewBox="0 0 26 26" fill="none" xmlns="http://www.w3.org/2000/svg">
<path d="M23.4 13C23.4 15.7583 22.3043 18.4035 20.3539 20.3539C18.4035 22.3043 15.7583 23.4 13 23.4C10.2417 23.4 7.59647 22.3043 5.64609 20.3539C3.69571 18.4035 2.6 15.7583 2.6 13C2.6 10.2418 3.69571 7.59651 5.64609 5.64613C7.59647 3.69576 10.2417 2.60005 13 2.60005C13.988 2.60005 14.95 2.74305 15.86 3.00305L17.901 0.962056C16.3466 0.321893 14.6811 -0.0050264 13 5.84158e-05C11.2928 5.84158e-05 9.60235 0.336313 8.02512 0.989622C6.44788 1.64293 5.01477 2.6005 3.80761 3.80766C1.36964 6.24563 0 9.55222 0 13C0 16.4478 1.36964 19.7544 3.80761 22.1924C5.01477 23.3996 6.44788 24.3571 8.02512 25.0104C9.60235 25.6637 11.2928 26 13 26C16.4478 26 19.7544 24.6304 22.1924 22.1924C24.6304 19.7544 26 16.4478 26 13M7.683 10.504L5.85 12.35L11.7 18.2L24.7 5.20005L22.867 3.35405L11.7 14.521L7.683 10.504Z" fill="#9474BB"/>
</svg>
