<svg width="38" height="38" viewBox="0 0 38 38" fill="none" xmlns="http://www.w3.org/2000/svg">
<path d="M14.6658 3.15958C15.7674 2.22199 16.3182 1.7532 16.8925 1.47778C17.5502 1.16325 18.27 1 18.999 1C19.7281 1 20.4479 1.16325 21.1056 1.47778C21.6818 1.75124 22.2326 2.22004 23.3322 3.15958C23.7717 3.53462 23.9905 3.72018 24.2248 3.87645C24.7616 4.2362 25.3644 4.48584 25.9984 4.6109C26.2738 4.66559 26.5609 4.68903 27.1351 4.73591C28.5785 4.8492 29.2993 4.9078 29.9009 5.12071C30.588 5.36321 31.2121 5.75643 31.7276 6.27153C32.243 6.78663 32.6366 7.41056 32.8795 8.09757C33.0924 8.70114 33.1491 9.42192 33.2643 10.8635C33.3092 11.4377 33.3327 11.7249 33.3873 12.0022C33.5123 12.6351 33.7624 13.2387 34.1218 13.7739C34.278 14.0083 34.4655 14.2271 34.8386 14.6666C35.7761 15.7682 36.2469 16.3191 36.5223 16.8933C36.8368 17.5511 37 18.2709 37 19C37 19.7291 36.8368 20.4489 36.5223 21.1067C36.2488 21.6809 35.7781 22.2318 34.8386 23.3334C34.5832 23.6174 34.3439 23.9154 34.1218 24.2261C33.7621 24.7622 33.5125 25.3644 33.3873 25.9978C33.3327 26.2751 33.3092 26.5623 33.2643 27.1365C33.1491 28.5781 33.0924 29.3008 32.8795 29.9024C32.6366 30.5894 32.243 31.2134 31.7276 31.7285C31.2121 32.2436 30.588 32.6368 29.9009 32.8793C29.2993 33.0942 28.5785 33.1508 27.1351 33.2641C26.5609 33.311 26.2757 33.3344 25.9984 33.3891C25.3644 33.5142 24.7616 33.7638 24.2248 34.1236C23.9149 34.3458 23.6175 34.5851 23.3342 34.8404C22.2326 35.778 21.6818 36.2468 21.1075 36.5222C20.4498 36.8367 19.73 37 19.001 37C18.2719 37 17.5522 36.8367 16.8944 36.5222C16.3182 36.2488 15.7674 35.78 14.6678 34.8404C14.3838 34.5851 14.0858 34.3457 13.7752 34.1236C13.2384 33.7638 12.6356 33.5142 12.0016 33.3891C11.6253 33.3264 11.2458 33.2847 10.8649 33.2641C9.42146 33.1508 8.70072 33.0922 8.09913 32.8793C7.412 32.6368 6.78785 32.2436 6.27244 31.7285C5.75703 31.2134 5.36343 30.5894 5.12049 29.9024C4.90759 29.3008 4.85095 28.5781 4.73571 27.1365C4.7162 26.7549 4.67512 26.3747 4.61265 25.9978C4.48736 25.3645 4.23774 24.7623 3.87825 24.2261C3.72199 23.9917 3.53448 23.7729 3.16142 23.3334C2.22388 22.2318 1.75315 21.6809 1.47775 21.1067C1.16324 20.4489 1 19.7291 1 19C1 18.2709 1.16324 17.5511 1.47775 16.8933C1.75315 16.3191 2.22192 15.7682 3.16142 14.6666C3.53448 14.2271 3.72199 14.0083 3.87825 13.7739C4.23774 13.2377 4.48736 12.6355 4.61265 12.0022C4.66734 11.7249 4.69078 11.4377 4.73571 10.8635C4.85095 9.42192 4.90759 8.70114 5.12049 8.09757C5.36363 7.41036 5.75753 6.7863 6.27329 6.27119C6.78906 5.75607 7.4136 5.36297 8.10109 5.12071C8.70268 4.9078 9.42341 4.8492 10.8668 4.73591C11.4411 4.68903 11.7262 4.66559 12.0036 4.6109C12.6375 4.48584 13.2404 4.2362 13.7771 3.87645C14.0115 3.72018 14.2283 3.53462 14.6658 3.15958Z" stroke="#9B7ED9" stroke-width="2"/>
<path d="M12.6133 19.3486L16.5948 23.0647L26.5488 13.7744" stroke="#9B7ED9" stroke-width="2" stroke-linecap="round" stroke-linejoin="round"/>
</svg>
