<svg width="35" height="37" viewBox="0 0 35 37" fill="none" xmlns="http://www.w3.org/2000/svg">
<path d="M9.25 28C5.66125 27.9797 3.71755 27.8177 2.45035 26.5199C1 25.0381 1 22.65 1 17.8771V11.1263C1 6.35342 1 3.96531 2.45035 2.4835C3.89905 1 6.2338 1 10.9 1H24.1C28.7662 1 31.101 1 32.5497 2.4835C34 3.96531 34 6.35342 34 11.1263V17.8771C34 22.65 34 25.0381 32.5497 26.5199C31.3452 27.7519 29.5318 27.9612 26.278 27.9966L24.925 28" stroke="#FDFCFF" stroke-width="2"/>
<path d="M12.4 8H22.6M9 14H26" stroke="#FDFCFF" stroke-width="2" stroke-linecap="round"/>
<path d="M15.6355 21.6875C16.1556 21.2438 16.817 21 17.5008 21C18.1847 21 18.8461 21.2438 19.3662 21.6875C19.825 22.0807 20.3981 22.3176 20.9997 22.3663C21.681 22.4201 22.3208 22.7148 22.8043 23.1976C23.2879 23.6804 23.5835 24.3197 23.6381 25.0007C23.6852 25.6055 23.9221 26.1768 24.3137 26.6371C24.7567 27.1569 25 27.8175 25 28.5004C25 29.1832 24.7567 29.8438 24.3137 30.3636C23.9212 30.8242 23.6842 31.3968 23.6365 32C23.5823 32.6811 23.2871 33.3205 22.8038 33.8037C22.3206 34.2868 21.6809 34.5819 20.9997 34.6361C20.397 34.6842 19.8248 34.9211 19.3645 35.3132C18.8445 35.7565 18.1834 36 17.5 36C16.8166 36 16.1555 35.7565 15.6355 35.3132C15.1754 34.9205 14.6032 34.683 14.0003 34.6344C13.3193 34.5803 12.6799 34.2854 12.1967 33.8026C11.7135 33.3199 11.4181 32.6808 11.3635 32C11.3158 31.3968 11.0788 30.8242 10.6863 30.3636C10.2433 29.8438 10 29.1832 10 28.5004C10 27.8175 10.2433 27.1569 10.6863 26.6371C11.0788 26.1766 11.3158 25.6039 11.3635 25.0007C11.4182 24.3197 11.7138 23.6804 12.1973 23.1976C12.6809 22.7148 13.3207 22.4201 14.002 22.3663C14.6036 22.3176 15.175 22.0807 15.6355 21.6875Z" stroke="#FDFCFF" stroke-width="2"/>
<path d="M15 28.8L16.4283 30L20 27" stroke="#FDFCFF" stroke-width="2" stroke-linecap="round" stroke-linejoin="round"/>
</svg>
