<svg width="38" height="38" viewBox="0 0 38 38" fill="none" xmlns="http://www.w3.org/2000/svg">
<path d="M37 16.3V19C37 27.4852 37 31.7278 34.363 34.363C31.7296 37 27.4852 37 19 37C10.5148 37 6.2722 37 3.6352 34.363C1 31.7296 1 27.4852 1 19C1 10.5148 1 6.2722 3.6352 3.6352C6.274 1 10.5148 1 19 1H21.7" stroke="#9B7ED9" stroke-width="2" stroke-linecap="round"/>
<path d="M27.4151 3.60778L28.5782 2.44468C29.5035 1.5195 30.7585 0.999832 32.067 1C33.3755 1.00017 34.6304 1.52016 35.5555 2.44558C36.4806 3.37099 37.0003 4.62604 37.0001 5.93461C36.9999 7.24318 36.48 8.49809 35.5546 9.42327L34.3898 10.5864C34.3898 10.5864 31.9203 10.4412 29.7412 8.26017C27.5603 6.08093 27.4151 3.60957 27.4151 3.60957L16.7256 14.2979C16.0016 15.0219 15.6396 15.3839 15.3278 15.7836C14.9604 16.2531 14.6468 16.7639 14.3888 17.3033C14.1719 17.7603 14.0107 18.246 13.6863 19.2173L12.6487 22.3267M12.6487 22.3267L11.9785 24.3374C11.8997 24.572 11.8878 24.8238 11.9443 25.0647C12.0008 25.3056 12.1233 25.5259 12.2981 25.7009C12.473 25.876 12.6932 25.9987 12.934 26.0555C13.1748 26.1122 13.4266 26.1006 13.6612 26.0221L15.6737 25.3518M12.6487 22.3267L15.6737 25.3518M34.3916 10.5846L23.702 21.2747C22.978 21.9987 22.616 22.3607 22.2164 22.6725C21.7455 23.0398 21.2359 23.3547 20.6968 23.6116C20.2398 23.8285 19.7542 23.9898 18.7829 24.3141L15.6737 25.3518" stroke="#9B7ED9" stroke-width="2"/>
</svg>
