<svg width="168" height="32" viewBox="0 0 168 32" fill="none" xmlns="http://www.w3.org/2000/svg">
<path d="M7.2426 26.0474L11.574 17.8913L11.645 19.097L0 1.04736H3.5858L13.2781 16.1537H12.568L20.5562 1.04736H24L10.7219 26.0474H7.2426Z" fill="#FFE0BC"/>
<path d="M19.2426 30.9521L23.574 22.7961L23.645 24.0018L12 5.95215H15.5858L25.2781 21.0585H24.568L32.5562 5.95215H36L22.7219 30.9521H19.2426Z" fill="#FDFCFF"/>
<path d="M51.2018 11.5439L53.187 7.74975L53.219 8.39556L48 0.161453H50.2093L54.2276 6.58729H53.8273L57.1732 0.161453H59.3025L53.3471 11.5439H51.2018Z" fill="#FDFCFF"/>
<path d="M65.1048 11.7053C63.9308 11.7053 62.9222 11.4686 62.0791 10.995C61.2466 10.5106 60.6062 9.83249 60.158 8.96065C59.7097 8.07804 59.4856 7.03935 59.4856 5.8446C59.4856 4.64985 59.7097 3.61655 60.158 2.7447C60.6062 1.87286 61.2466 1.20013 62.0791 0.726539C62.9222 0.24218 63.9308 0 65.1048 0C65.8946 0 66.6043 0.113017 67.234 0.339052C67.8744 0.565086 68.424 0.898755 68.8829 1.34006L68.2106 2.98688C67.7089 2.57787 67.2233 2.28725 66.7537 2.11504C66.2948 1.93206 65.7665 1.84057 65.1688 1.84057C64.0268 1.84057 63.1517 2.19038 62.5433 2.89001C61.9456 3.57888 61.6468 4.56374 61.6468 5.8446C61.6468 7.12546 61.9456 8.11571 62.5433 8.81534C63.1517 9.51497 64.0268 9.86478 65.1688 9.86478C65.7665 9.86478 66.2948 9.77868 66.7537 9.60646C67.2233 9.42348 67.7089 9.1221 68.2106 8.70232L68.8829 10.3491C68.424 10.7797 67.8744 11.1134 67.234 11.3502C66.6043 11.5869 65.8946 11.7053 65.1048 11.7053Z" fill="#FDFCFF"/>
<path d="M70.8132 11.5439V0.161453H75.76C76.9874 0.161453 77.9319 0.42516 78.5936 0.952573C79.2553 1.46922 79.5862 2.19038 79.5862 3.11604C79.5862 3.80491 79.3834 4.38614 78.9778 4.85974C78.5723 5.33333 78.012 5.65086 77.2969 5.81231V5.57013C78.1187 5.68853 78.7537 5.98991 79.202 6.47427C79.6609 6.94786 79.8904 7.57753 79.8904 8.36327C79.8904 9.37504 79.5435 10.1608 78.8498 10.7205C78.156 11.2694 77.1902 11.5439 75.9521 11.5439H70.8132ZM72.7983 9.96166H75.712C76.4057 9.96166 76.9447 9.83249 77.3289 9.57417C77.7131 9.30508 77.9052 8.86916 77.9052 8.2664C77.9052 7.65288 77.7131 7.21695 77.3289 6.95863C76.9447 6.68954 76.4057 6.555 75.712 6.555H72.7983V9.96166ZM72.7983 4.9889H75.4078C76.1442 4.9889 76.6885 4.85436 77.0407 4.58527C77.4036 4.30542 77.585 3.8964 77.585 3.35822C77.585 2.82005 77.4036 2.41641 77.0407 2.14733C76.6885 1.86747 76.1442 1.72755 75.4078 1.72755H72.7983V4.9889Z" fill="#FDFCFF"/>
<path d="M81.8664 11.5439V0.161453H83.9315V11.5439H81.8664Z" fill="#FDFCFF"/>
<path d="M85.3913 14.2079V9.91322H86.5599C87.0936 9.26741 87.4885 8.3848 87.7446 7.26539C88.0008 6.14598 88.1288 4.76825 88.1288 3.13219V0.161453H96.3095V9.91322H97.9584V14.2079H96.1654V11.5439H87.2003V14.2079H85.3913ZM88.6251 9.91322H94.2603V1.77598H90.0179V3.32593C90.0179 4.88665 89.9005 6.1998 89.6657 7.26539C89.4416 8.33098 89.0947 9.21359 88.6251 9.91322Z" fill="#FDFCFF"/>
<path d="M99.2114 5.8446C99.2114 4.64985 99.4249 3.61655 99.8518 2.7447C100.289 1.87286 100.914 1.20013 101.725 0.726539C102.536 0.24218 103.502 0 104.623 0C105.732 0 106.693 0.24218 107.504 0.726539C108.315 1.20013 108.94 1.87286 109.377 2.7447C109.825 3.61655 110.05 4.64447 110.05 5.82846C110.05 7.02321 109.825 8.06189 109.377 8.9445C108.94 9.81635 108.315 10.4944 107.504 10.9788C106.693 11.4632 105.732 11.7053 104.623 11.7053C103.502 11.7053 102.536 11.4632 101.725 10.9788C100.924 10.4944 100.305 9.81635 99.8678 8.9445C99.4302 8.06189 99.2114 7.02859 99.2114 5.8446ZM101.373 5.8446C101.373 7.12546 101.645 8.12647 102.189 8.84763C102.733 9.56879 103.545 9.92936 104.623 9.92936C105.668 9.92936 106.474 9.56879 107.04 8.84763C107.606 8.12647 107.888 7.12546 107.888 5.8446C107.888 4.55298 107.606 3.55197 107.04 2.84157C106.485 2.13118 105.679 1.77598 104.623 1.77598C103.545 1.77598 102.733 2.13118 102.189 2.84157C101.645 3.55197 101.373 4.55298 101.373 5.8446Z" fill="#FDFCFF"/>
<path d="M112.197 11.5439V0.161453H114.006L118.152 9.57417H117.656L121.802 0.161453H123.595V11.5439H121.722V3.0999H122.298L118.504 11.5439H117.271L113.477 3.0999H114.07V11.5439H112.197Z" fill="#FDFCFF"/>
<path d="M126.094 11.8184L125.086 10.2846C125.534 10.037 125.929 9.74638 126.271 9.41271C126.612 9.07905 126.895 8.66465 127.119 8.16953C127.343 7.66364 127.509 7.04474 127.615 6.31282C127.733 5.57013 127.791 4.67676 127.791 3.63269V0.161453H135.988V11.5439H133.939V1.85671H129.696V4.14934C129.696 5.23646 129.616 6.19442 129.456 7.02321C129.296 7.852 129.061 8.57854 128.752 9.20283C128.442 9.81635 128.064 10.3384 127.615 10.7689C127.178 11.1887 126.671 11.5385 126.094 11.8184Z" fill="#FDFCFF"/>
<path d="M138.477 11.5439V0.161453H146.081V1.79213H140.462V4.94046H145.713V6.58729H140.462V9.89707H146.081V11.5439H138.477Z" fill="#FDFCFF"/>
<path d="M147.998 11.5439V0.161453H150.063V4.90817H155.842V0.161453H157.908V11.5439H155.842V6.63572H150.063V11.5439H147.998Z" fill="#FDFCFF"/>
<path d="M160.396 11.5439V0.161453H168V1.79213H162.381V4.94046H167.632V6.58729H162.381V9.89707H168V11.5439H160.396Z" fill="#FDFCFF"/>
<path d="M51.2018 31.7255L53.187 27.9314L53.219 28.5772L48 20.3431H50.2093L54.2276 26.7689H53.8273L57.1732 20.3431H59.3025L53.3471 31.7255H51.2018Z" fill="#FDFCFF"/>
<path d="M60.3384 31.7255V20.3431H70.2161V31.7255H68.1669V22.0383H62.3716V31.7255H60.3384Z" fill="#FDFCFF"/>
<path d="M72.7049 31.7255V20.3431H77.7157C78.9538 20.3431 79.8983 20.6445 80.5494 21.2472C81.2004 21.85 81.5259 22.6788 81.5259 23.7336C81.5259 24.7777 81.2004 25.6065 80.5494 26.22C79.8983 26.8335 78.9538 27.1403 77.7157 27.1403H74.7701V31.7255H72.7049ZM74.7701 25.4934H77.4756C78.1587 25.4934 78.671 25.3428 79.0125 25.0414C79.354 24.7292 79.5248 24.2933 79.5248 23.7336C79.5248 23.1739 79.354 22.7434 79.0125 22.442C78.671 22.1298 78.1587 21.9738 77.4756 21.9738H74.7701V25.4934Z" fill="#FDFCFF"/>
<path d="M80.9147 31.7255L86.0216 20.3431H87.7506L92.9216 31.7255H90.8244L89.4476 28.5288L90.2801 29.0938H83.5082L84.3727 28.5288L82.9959 31.7255H80.9147ZM86.8701 22.5711L84.6128 27.9637L84.1966 27.4632H89.5756L89.2395 27.9637L86.9341 22.5711H86.8701Z" fill="#FDFCFF"/>
<path d="M94.1703 31.7255V20.3431H99.1171C100.344 20.3431 101.289 20.6068 101.951 21.1342C102.612 21.6509 102.943 22.372 102.943 23.2977C102.943 23.9865 102.741 24.5678 102.335 25.0414C101.929 25.515 101.369 25.8325 100.654 25.9939V25.7518C101.476 25.8702 102.111 26.1715 102.559 26.6559C103.018 27.1295 103.247 27.7592 103.247 28.5449C103.247 29.5567 102.901 30.3424 102.207 30.9021C101.513 31.4511 100.547 31.7255 99.3092 31.7255H94.1703ZM96.1554 30.1433H99.0691C99.7628 30.1433 100.302 30.0141 100.686 29.7558C101.07 29.4867 101.262 29.0508 101.262 28.448C101.262 27.8345 101.07 27.3986 100.686 27.1403C100.302 26.8712 99.7628 26.7366 99.0691 26.7366H96.1554V30.1433ZM96.1554 25.1705H98.7649C99.5013 25.1705 100.046 25.036 100.398 24.7669C100.761 24.4871 100.942 24.078 100.942 23.5399C100.942 23.0017 100.761 22.598 100.398 22.329C100.046 22.0491 99.5013 21.9092 98.7649 21.9092H96.1554V25.1705Z" fill="#FDFCFF"/>
<path d="M105.051 32L104.043 30.4662C104.491 30.2186 104.886 29.928 105.227 29.5943C105.569 29.2607 105.852 28.8463 106.076 28.3512C106.3 27.8453 106.465 27.2264 106.572 26.4944C106.689 25.7518 106.748 24.8584 106.748 23.8143V20.3431H114.945V31.7255H112.896V22.0383H108.653V24.331C108.653 25.4181 108.573 26.3761 108.413 27.2048C108.253 28.0336 108.018 28.7602 107.709 29.3845C107.399 29.998 107.02 30.52 106.572 30.9506C106.134 31.3703 105.627 31.7201 105.051 32Z" fill="#FDFCFF"/>
<path d="M117.434 31.7255V20.3431H119.499V31.7255H117.434Z" fill="#FDFCFF"/>
<path d="M121.983 31.7255V20.3431H124.048V25.0898H129.828V20.3431H131.893V31.7255H129.828V26.8174H124.048V31.7255H121.983Z" fill="#FDFCFF"/>
<path d="M134.381 31.7255V20.3431H136.446V25.0898H142.225V20.3431H144.29V31.7255H142.225V26.8174H136.446V31.7255H134.381Z" fill="#FDFCFF"/>
<path d="M146.01 31.7255L147.979 28.222C148.235 27.7592 148.529 27.4201 148.86 27.2048C149.201 26.9896 149.596 26.8819 150.044 26.8819H150.589L150.573 27.1241C149.303 27.1241 148.315 26.8281 147.611 26.2361C146.917 25.6334 146.57 24.7992 146.57 23.7336C146.57 22.6572 146.912 21.8231 147.595 21.2311C148.289 20.6391 149.271 20.3431 150.541 20.3431H155.584V31.7255H153.534V27.1726H152.029C151.603 27.1726 151.256 27.2371 150.989 27.3663C150.722 27.4955 150.487 27.743 150.284 28.109L148.267 31.7255H146.01ZM150.877 25.6549H153.534V21.9576H150.877C149.329 21.9576 148.556 22.5711 148.556 23.7982C148.556 25.036 149.329 25.6549 150.877 25.6549Z" fill="#FDFCFF"/>
</svg>
