<svg width="80" height="80" viewBox="0 0 80 80" fill="none" xmlns="http://www.w3.org/2000/svg">
<path d="M67.5 23.75H61.25V21.25C61.25 19.8713 60.1287 18.75 58.75 18.75C57.3713 18.75 56.25 19.8713 56.25 21.25V23.75H46.25V17.5C43.4925 17.5 41.25 15.2575 41.25 12.5C41.25 9.7425 43.4925 7.5 46.25 7.5V5C46.25 2.9325 47.9325 1.25 50 1.25H67.5C69.5675 1.25 71.25 2.9325 71.25 5V20C71.25 22.0675 69.5675 23.75 67.5 23.75Z" fill="#C2A4E8"/>
<path d="M51.25 31.25C51.25 28.4925 49.0075 26.25 46.25 26.25C43.4925 26.25 41.25 28.4925 41.25 31.25H36.25V25H33.75C32.3713 25 31.25 23.8787 31.25 22.5C31.25 21.1213 32.3713 20 33.75 20H36.25V8.75H32.8988C19.5837 8.75 8.75 19.5837 8.75 32.8988C8.75 40.1712 11.9788 46.9837 17.6075 51.5887L22.5 55.5925V58.9813C21.0487 59.4988 20 60.8737 20 62.5013C20 64.23 21.1812 65.675 22.775 66.1062C22.6012 66.5375 22.5 67.0062 22.5 67.5C22.5 69.1525 23.5813 70.5425 25.0675 71.0413C25.585 75.3763 29.2787 78.75 33.75 78.75C38.2213 78.75 41.915 75.3763 42.4325 71.0413C43.9188 70.5425 45 69.1525 45 67.5C45 67.0062 44.8988 66.5375 44.725 66.105C46.3187 65.6725 47.5 64.2287 47.5 62.5C47.5 60.8725 46.4512 59.4975 45 58.98V55.5912L49.8925 51.5875C55.5213 46.9837 58.75 40.1712 58.75 32.8988V31.25H51.25ZM32.8988 11.25H33.75V17.5C30.9925 17.5 28.75 19.7425 28.75 22.5C28.75 25.2575 30.9925 27.5 33.75 27.5V31.25H28.75C28.75 28.4925 26.5075 26.25 23.75 26.25C20.9925 26.25 18.75 28.4925 18.75 31.25H11.3125C12.1575 20.08 21.5163 11.25 32.8988 11.25ZM19.19 49.6537C14.3638 45.705 11.5062 39.9475 11.2675 33.75H21.25V31.25C21.25 29.8713 22.3713 28.75 23.75 28.75C25.1287 28.75 26.25 29.8713 26.25 31.25V33.75H33.75V38.75C30.9925 38.75 28.75 40.9925 28.75 43.75C28.75 46.5075 30.9925 48.75 33.75 48.75V58.75H25V54.4075L19.19 49.6537ZM33.75 76.25C30.7325 76.25 28.2075 74.0987 27.6262 71.25H39.8738C39.2925 74.0987 36.7675 76.25 33.75 76.25ZM41.25 68.75H26.25C25.56 68.75 25 68.1888 25 67.5C25 66.8112 25.56 66.25 26.25 66.25H41.25C41.94 66.25 42.5 66.8112 42.5 67.5C42.5 68.1888 41.94 68.75 41.25 68.75ZM43.75 63.75H41.25H26.25H23.75C23.06 63.75 22.5 63.1888 22.5 62.5C22.5 61.8112 23.06 61.25 23.75 61.25H43.75C44.44 61.25 45 61.8112 45 62.5C45 63.1888 44.44 63.75 43.75 63.75ZM48.31 49.6537L42.5 54.4075V58.75H36.25V46.25H33.75C32.3713 46.25 31.25 45.1287 31.25 43.75C31.25 42.3713 32.3713 41.25 33.75 41.25H36.25V33.75H43.75V31.25C43.75 29.8713 44.8713 28.75 46.25 28.75C47.6287 28.75 48.75 29.8713 48.75 31.25V33.75H56.2325C55.9938 39.9475 53.1362 45.705 48.31 49.6537Z" fill="#9474BB"/>
</svg>
