<svg width="32" height="32" viewBox="0 0 32 32" fill="none" xmlns="http://www.w3.org/2000/svg">
<path d="M12.0654 9.98678C13.2521 10.8499 14.4041 10.369 14.6272 8.91923L15.5943 2.63567C15.8174 1.1859 16.1819 1.1859 16.405 2.63567L17.3721 8.91923C17.5952 10.369 18.7481 10.849 19.9339 9.98678L25.3988 6.01256C26.5846 5.14945 26.8494 5.41434 25.9863 6.60101L22.0121 12.065C21.149 13.2517 21.629 14.4037 23.0788 14.6268L29.3632 15.5939C30.813 15.817 30.813 16.1815 29.3632 16.4046L23.0788 17.3717C21.629 17.5948 21.149 18.7477 22.0121 19.9335L25.9863 25.3983C26.8494 26.5841 26.5846 26.849 25.3988 25.9859L19.9339 22.0117C18.7481 21.1486 17.5952 21.6286 17.3721 23.0783L16.405 29.3628C16.1819 30.8126 15.8174 30.8126 15.5943 29.3628L14.6272 23.0783C14.4041 21.6286 13.2512 21.1486 12.0654 22.0117L6.60145 25.9859C5.41567 26.849 5.19611 26.6197 6.11611 25.4766L10.6361 19.8552C11.5552 18.7121 11.1179 17.6126 9.66545 17.4126L2.50367 16.4232C1.05122 16.2223 1.04767 15.8721 2.49656 15.6446L8.92145 14.6357C10.3703 14.4081 10.8503 13.2508 9.98722 12.065L6.013 6.60101C5.14989 5.41523 5.41478 5.15034 6.60056 6.01345L12.0654 9.98678Z" fill="#FBEBD8"/>
</svg>
