<svg width="35" height="36" viewBox="0 0 35 36" fill="none" xmlns="http://www.w3.org/2000/svg">
<path d="M15.4527 11.0674C17.282 7.79062 18.1958 6.15137 19.5631 6.15137C20.9303 6.15137 21.8441 7.79062 23.6734 11.0674L24.1456 11.9159C24.6653 12.8475 24.9269 13.3125 25.3311 13.6196C25.7354 13.9268 26.2398 14.0405 27.2504 14.2696L28.1676 14.4766C31.7191 15.2793 33.4957 15.6814 33.917 17.039C34.3399 18.3966 33.1289 19.8101 30.7068 22.6389L30.0818 23.3686C29.3939 24.173 29.0508 24.5751 28.8945 25.0724C28.7417 25.5696 28.7926 26.1058 28.8962 27.1766L28.9914 28.154C29.3582 31.928 29.54 33.815 28.4342 34.6533C27.3285 35.4933 25.6657 34.728 22.3418 33.199L21.4806 32.802C20.5363 32.3675 20.0641 32.1503 19.5631 32.1503C19.062 32.1503 18.5898 32.3675 17.6438 32.802L16.7843 33.199C13.4604 34.7263 11.7976 35.4933 10.6919 34.6533C9.58615 33.815 9.76959 31.928 10.1348 28.154L10.2299 27.1783C10.3335 26.1058 10.3861 25.5696 10.2299 25.074C10.077 24.5751 9.73222 24.1747 9.04434 23.3703L8.4176 22.6372C5.99726 19.8101 4.78624 18.3949 5.20746 17.0373C5.63208 15.6797 7.407 15.2793 10.9585 14.4766L11.8757 14.2696C12.8863 14.0405 13.3908 13.9268 13.795 13.6196C14.2009 13.3142 14.4608 12.8475 14.9805 11.9159L15.4527 11.0674Z" stroke="#FDFCFF" stroke-width="2"/>
<path d="M6.13906 1C6.13906 1 6.63406 3.50364 7.72031 4.5803C8.80312 5.65697 11.3125 6.13434 11.3125 6.13434C11.3125 6.13434 8.80656 6.62889 7.72891 7.71414C6.65125 8.79596 6.17344 11.303 6.17344 11.303C6.17344 11.303 5.67844 8.79939 4.59219 7.72273C3.50938 6.64606 1 6.16869 1 6.16869C1 6.16869 3.50594 5.67414 4.58359 4.58889C5.66125 3.50707 6.13906 1 6.13906 1Z" stroke="#FDFCFF" stroke-width="2" stroke-linejoin="round"/>
<path d="M28.8438 6.66655H31.9375M30.3906 8.212V5.12109" stroke="#FDFCFF" stroke-width="2" stroke-linecap="round"/>
</svg>
