<svg width="34" height="34" viewBox="0 0 34 34" fill="none" xmlns="http://www.w3.org/2000/svg">
<path d="M17 5.5C17 3.379 17 2.3185 17.704 1.66C18.4048 1 19.536 1 21.8 1H23.4C25.6624 1 26.7936 1 27.496 1.66C28.2 2.317 28.2 3.3775 28.2 5.5C28.2 7.621 28.2 8.6815 27.496 9.34C26.7952 10 25.664 10 23.4 10H21.8C19.5376 10 18.4064 10 17.704 9.34C17 8.683 17 7.6225 17 5.5ZM28.2 3.625L30.784 2.6155C31.7872 2.224 32.288 2.0275 32.6432 2.251C33 2.473 33 2.983 33 4V7C33 8.017 33 8.527 32.6432 8.749C32.288 8.971 31.7872 8.776 30.784 8.3845L28.2 7.375V3.625Z" stroke="#9B7ED9" stroke-width="2"/>
<path d="M23.4 33H10.6M17 25V33M33 18.6H1M33 13.8V15.4C33 19.9248 33 22.1888 31.5936 23.5936C30.1888 25 27.9248 25 23.4 25H10.6C6.0752 25 3.8112 25 2.4064 23.5936C1 22.1888 1 19.9248 1 15.4V13C1 7.7408 1 5.1104 2.4528 3.3392C2.71855 3.01544 3.01544 2.71855 3.3392 2.4528C5.112 1 7.7392 1 13 1" stroke="#9B7ED9" stroke-width="2" stroke-linecap="round"/>
</svg>
